<svg width="64" height="40" viewBox="0 0 64 40" fill="none" xmlns="http://www.w3.org/2000/svg">
<path fill-rule="evenodd" clip-rule="evenodd" d="M50.4835 15.6592H54.6634C59.2602 15.6592 63 19.399 63 23.9965V31.4958C63 31.9584 62.6246 32.3338 62.162 32.3338H52.7421C52.7421 32.3417 52.7426 32.3493 52.7431 32.357C52.7436 32.3647 52.7441 32.3723 52.7441 32.3802C52.7441 36.0647 49.7463 39.0625 46.0617 39.0625C42.3772 39.0625 39.3794 36.0647 39.3794 32.3802C39.3794 32.3645 39.3814 32.3495 39.3814 32.3338H24.6206C24.6206 32.3376 24.6208 32.3414 24.6209 32.3452L24.6217 32.357C24.6222 32.3647 24.6227 32.3723 24.6227 32.3802C24.6227 36.0647 21.6242 39.0625 17.9396 39.0625C14.2551 39.0625 11.2573 36.0647 11.2573 32.3802C11.2573 32.3758 11.2574 32.3714 11.2576 32.3671L11.2583 32.357L11.2591 32.3437L11.2593 32.3338H1.83802C1.37473 32.3338 1 31.9584 1 31.4958V23.9965C1 19.399 4.73976 15.6592 9.33661 15.6592H13.5165V11.1012C13.5165 5.53145 18.048 1 23.6177 1H40.3823C45.952 1 50.4835 5.53145 50.4835 11.1012V15.6592ZM48.8104 15.6582V11.1002C48.8104 6.45497 45.0304 2.67501 40.3852 2.67501H32.8409V15.6582H48.8104ZM23.6196 2.67501H31.1638V15.6582H15.1944V11.1002C15.1944 6.45497 18.9737 2.67501 23.6196 2.67501ZM12.9306 32.3784C12.9306 35.1391 15.1769 37.3854 17.9376 37.3854C20.699 37.3854 22.9453 35.1391 22.9446 32.3784C22.9446 29.617 20.699 27.3707 17.9376 27.3707C15.1762 27.3707 12.9306 29.617 12.9306 32.3784ZM46.0602 37.3854C43.2995 37.3854 41.0532 35.1391 41.0532 32.3784C41.0532 29.617 43.2988 27.3707 46.0602 27.3707C48.8216 27.3707 51.0672 29.617 51.0672 32.3784C51.0665 35.1391 48.8209 37.3854 46.0602 37.3854ZM52.5073 30.6569H61.3209V23.9957C61.3209 20.3227 58.3326 17.3344 54.6596 17.3344H49.6417H14.3514H9.3335C5.66051 17.3344 2.67225 20.3227 2.67225 23.9957V30.6569H11.4872C12.2495 27.8049 14.8481 25.6956 17.9365 25.6956C21.0249 25.6956 23.6235 27.8049 24.3859 30.6569H39.6086C40.371 27.8049 42.9695 25.6956 46.058 25.6956C49.1464 25.6956 51.7449 27.8049 52.5073 30.6569Z" fill="#2C2C2E"/>
<path d="M50.4835 15.6592H50.0835V16.0592H50.4835V15.6592ZM52.7421 32.3338V31.9338H52.3421V32.3338H52.7421ZM52.7431 32.357L52.344 32.3836V32.3836L52.7431 32.357ZM39.3814 32.3338H39.7814V31.9338H39.3814V32.3338ZM24.6206 32.3338V31.9338H24.2206V32.3338H24.6206ZM24.6209 32.3452L24.2214 32.3647L24.2217 32.3693L24.6209 32.3452ZM24.6217 32.357L24.2224 32.3812L24.2225 32.3836L24.6217 32.357ZM11.2576 32.3671L10.8584 32.3423L10.8582 32.3458L11.2576 32.3671ZM11.2583 32.357L11.6575 32.3818L11.6576 32.3806L11.2583 32.357ZM11.2591 32.3437L11.6586 32.3673L11.6589 32.3532L11.2591 32.3437ZM11.2593 32.3338L11.6592 32.3433L11.6689 31.9338H11.2593V32.3338ZM13.5165 15.6592V16.0592H13.9165V15.6592H13.5165ZM48.8104 15.6582V16.0582H49.2104V15.6582H48.8104ZM32.8409 2.67501V2.27501H32.4409V2.67501H32.8409ZM32.8409 15.6582H32.4409V16.0582H32.8409V15.6582ZM31.1638 2.67501H31.5638V2.27501H31.1638V2.67501ZM31.1638 15.6582V16.0582H31.5638V15.6582H31.1638ZM15.1944 15.6582H14.7944V16.0582H15.1944V15.6582ZM22.9446 32.3784H22.5446V32.3785L22.9446 32.3784ZM51.0672 32.3784L51.4672 32.3785V32.3784H51.0672ZM61.3209 30.6569V31.0569H61.7209V30.6569H61.3209ZM52.5073 30.6569L52.1209 30.7602L52.2002 31.0569H52.5073V30.6569ZM2.67225 30.6569H2.27225V31.0569H2.67225V30.6569ZM11.4872 30.6569V31.0569H11.7943L11.8736 30.7602L11.4872 30.6569ZM24.3859 30.6569L23.9995 30.7602L24.0788 31.0569H24.3859V30.6569ZM39.6086 30.6569V31.0569H39.9157L39.995 30.7602L39.6086 30.6569ZM54.6634 15.2592H50.4835V16.0592H54.6634V15.2592ZM63.4 23.9965C63.4 19.1781 59.4812 15.2592 54.6634 15.2592V16.0592C59.0393 16.0592 62.6 19.6199 62.6 23.9965H63.4ZM63.4 31.4958V23.9965H62.6V31.4958H63.4ZM62.162 32.7338C62.8455 32.7338 63.4 32.1793 63.4 31.4958H62.6C62.6 31.7375 62.4037 31.9338 62.162 31.9338V32.7338ZM52.7421 32.7338H62.162V31.9338H52.7421V32.7338ZM53.1422 32.3304C53.1419 32.326 53.1419 32.3255 53.1419 32.3256C53.1419 32.3261 53.1421 32.3292 53.1421 32.3338H52.3421C52.3421 32.3572 52.3436 32.378 52.344 32.3836L53.1422 32.3304ZM53.1441 32.3802C53.1441 32.3569 53.1426 32.3362 53.1422 32.3304L52.344 32.3836C52.3443 32.3879 52.3443 32.3884 52.3443 32.3883C52.3443 32.3878 52.3441 32.3848 52.3441 32.3802H53.1441ZM46.0617 39.4625C49.9672 39.4625 53.1441 36.2857 53.1441 32.3802H52.3441C52.3441 35.8438 49.5254 38.6625 46.0617 38.6625V39.4625ZM38.9794 32.3802C38.9794 36.2857 42.1562 39.4625 46.0617 39.4625V38.6625C42.5981 38.6625 39.7794 35.8438 39.7794 32.3802H38.9794ZM38.9814 32.3338C38.9814 32.3292 38.9816 32.3261 38.9816 32.3256C38.9816 32.3255 38.9816 32.326 38.9813 32.3304C38.981 32.3337 38.9806 32.3409 38.9802 32.3486C38.9798 32.3568 38.9794 32.3677 38.9794 32.3802H39.7794C39.7794 32.3848 39.7792 32.3879 39.7792 32.3884C39.7792 32.3885 39.7792 32.388 39.7795 32.3836C39.7797 32.3803 39.7802 32.3731 39.7806 32.3654C39.781 32.3572 39.7814 32.3463 39.7814 32.3338H38.9814ZM24.6206 32.7338H39.3814V31.9338H24.6206V32.7338ZM25.0205 32.3256C25.0205 32.3263 25.0206 32.3293 25.0206 32.3338H24.2206C24.2206 32.346 24.221 32.3565 24.2214 32.3647L25.0205 32.3256ZM25.0209 32.3328L25.0202 32.321L24.2217 32.3693L24.2224 32.3812L25.0209 32.3328ZM25.0227 32.3802C25.0227 32.3569 25.0211 32.336 25.0208 32.3304L24.2225 32.3836C24.2228 32.388 24.2229 32.3885 24.2229 32.3884C24.2228 32.3879 24.2227 32.3848 24.2227 32.3802H25.0227ZM17.9396 39.4625C21.8451 39.4625 25.0227 36.2857 25.0227 32.3802H24.2227C24.2227 35.8438 21.4033 38.6625 17.9396 38.6625V39.4625ZM10.8573 32.3802C10.8573 36.2857 14.0341 39.4625 17.9396 39.4625V38.6625C14.476 38.6625 11.6573 35.8438 11.6573 32.3802H10.8573ZM10.8582 32.3458C10.8578 32.3543 10.8573 32.3662 10.8573 32.3802H11.6573C11.6573 32.3828 11.6572 32.3849 11.6572 32.3863C11.6571 32.3877 11.6571 32.3885 11.6571 32.3885L10.8582 32.3458ZM10.859 32.3322L10.8584 32.3423L11.6569 32.392L11.6575 32.3818L10.859 32.3322ZM10.8598 32.3201L10.859 32.3334L11.6576 32.3806L11.6584 32.3673L10.8598 32.3201ZM10.8594 32.3243L10.8592 32.3342L11.6589 32.3532L11.6592 32.3433L10.8594 32.3243ZM1.83802 32.7338H11.2593V31.9338H1.83802V32.7338ZM0.6 31.4958C0.6 32.1791 1.1536 32.7338 1.83802 32.7338V31.9338C1.59585 31.9338 1.4 31.7377 1.4 31.4958H0.6ZM0.6 23.9965V31.4958H1.4V23.9965H0.6ZM9.33661 15.2592C4.51882 15.2592 0.6 19.1781 0.6 23.9965H1.4C1.4 19.6199 4.96069 16.0592 9.33661 16.0592V15.2592ZM13.5165 15.2592H9.33661V16.0592H13.5165V15.2592ZM13.1165 11.1012V15.6592H13.9165V11.1012H13.1165ZM23.6177 0.6C17.827 0.6 13.1165 5.31054 13.1165 11.1012H13.9165C13.9165 5.75236 18.2689 1.4 23.6177 1.4V0.6ZM40.3823 0.6H23.6177V1.4H40.3823V0.6ZM50.8835 11.1012C50.8835 5.31054 46.173 0.6 40.3823 0.6V1.4C45.7311 1.4 50.0835 5.75236 50.0835 11.1012H50.8835ZM50.8835 15.6592V11.1012H50.0835V15.6592H50.8835ZM48.4104 11.1002V15.6582H49.2104V11.1002H48.4104ZM40.3852 3.07501C44.8095 3.07501 48.4104 6.67588 48.4104 11.1002H49.2104C49.2104 6.23405 45.2513 2.27501 40.3852 2.27501V3.07501ZM32.8409 3.07501H40.3852V2.27501H32.8409V3.07501ZM33.2409 15.6582V2.67501H32.4409V15.6582H33.2409ZM48.8104 15.2582H32.8409V16.0582H48.8104V15.2582ZM31.1638 2.27501H23.6196V3.07501H31.1638V2.27501ZM31.5638 15.6582V2.67501H30.7638V15.6582H31.5638ZM15.1944 16.0582H31.1638V15.2582H15.1944V16.0582ZM14.7944 11.1002V15.6582H15.5944V11.1002H14.7944ZM23.6196 2.27501C18.7527 2.27501 14.7944 6.23408 14.7944 11.1002H15.5944C15.5944 6.67586 19.1946 3.07501 23.6196 3.07501V2.27501ZM17.9376 36.9854C15.3978 36.9854 13.3306 34.9182 13.3306 32.3784H12.5306C12.5306 35.36 14.956 37.7854 17.9376 37.7854V36.9854ZM22.5446 32.3785C22.5453 34.9181 20.4782 36.9854 17.9376 36.9854V37.7854C20.9199 37.7854 23.3454 35.36 23.3446 32.3783L22.5446 32.3785ZM17.9376 27.7707C20.478 27.7707 22.5446 29.8378 22.5446 32.3784H23.3446C23.3446 29.3962 20.92 26.9707 17.9376 26.9707V27.7707ZM13.3306 32.3784C13.3306 29.8378 15.3972 27.7707 17.9376 27.7707V26.9707C14.9553 26.9707 12.5306 29.3962 12.5306 32.3784H13.3306ZM40.6532 32.3784C40.6532 35.36 43.0786 37.7854 46.0602 37.7854V36.9854C43.5204 36.9854 41.4532 34.9182 41.4532 32.3784H40.6532ZM46.0602 26.9707C43.0778 26.9707 40.6532 29.3962 40.6532 32.3784H41.4532C41.4532 29.8378 43.5198 27.7707 46.0602 27.7707V26.9707ZM51.4672 32.3784C51.4672 29.3962 49.0426 26.9707 46.0602 26.9707V27.7707C48.6006 27.7707 50.6672 29.8378 50.6672 32.3784H51.4672ZM46.0602 37.7854C49.0419 37.7854 51.4665 35.3599 51.4672 32.3785L50.6672 32.3783C50.6666 34.9182 48.5999 36.9854 46.0602 36.9854V37.7854ZM61.3209 30.2569H52.5073V31.0569H61.3209V30.2569ZM60.9209 23.9957V30.6569H61.7209V23.9957H60.9209ZM54.6596 17.7344C58.1117 17.7344 60.9209 20.5436 60.9209 23.9957H61.7209C61.7209 20.1018 58.5535 16.9344 54.6596 16.9344V17.7344ZM49.6417 17.7344H54.6596V16.9344H49.6417V17.7344ZM14.3514 17.7344H49.6417V16.9344H14.3514V17.7344ZM9.3335 17.7344H14.3514V16.9344H9.3335V17.7344ZM3.07225 23.9957C3.07225 20.5436 5.88143 17.7344 9.3335 17.7344V16.9344C5.4396 16.9344 2.27225 20.1018 2.27225 23.9957H3.07225ZM3.07225 30.6569V23.9957H2.27225V30.6569H3.07225ZM11.4872 30.2569H2.67225V31.0569H11.4872V30.2569ZM17.9365 25.2956C14.6613 25.2956 11.9084 27.5322 11.1007 30.5536L11.8736 30.7602C12.5907 28.0776 15.0349 26.0956 17.9365 26.0956V25.2956ZM24.7723 30.5536C23.9646 27.5322 21.2118 25.2956 17.9365 25.2956V26.0956C20.8381 26.0956 23.2823 28.0776 23.9995 30.7602L24.7723 30.5536ZM39.6086 30.2569H24.3859V31.0569H39.6086V30.2569ZM46.058 25.2956C42.7827 25.2956 40.0298 27.5322 39.2222 30.5536L39.995 30.7602C40.7121 28.0776 43.1564 26.0956 46.058 26.0956V25.2956ZM52.8938 30.5536C52.0861 27.5322 49.3332 25.2956 46.058 25.2956V26.0956C48.9595 26.0956 51.4038 28.0776 52.1209 30.7602L52.8938 30.5536Z" fill="#2C2C2E"/>
</svg>
