<svg width="57" height="57" viewBox="0 0 57 57" fill="none" xmlns="http://www.w3.org/2000/svg">
<path fill-rule="evenodd" clip-rule="evenodd" d="M52.3988 22.8621H52.0477C51.0788 10.645 40.8926 1 28.5 1C16.1074 1 5.92121 10.645 4.95227 22.8621H4.60121C2.61219 22.8621 1 24.3976 1 26.2914V33.1501C1 35.044 2.61219 36.5795 4.60121 36.5795H5.47734C6.07246 38.7584 8.49934 45.2797 16.547 47.5418C16.7648 48.7425 17.8154 49.6539 19.0813 49.6539C20.5052 49.6539 21.6594 48.502 21.6594 47.0819C21.6594 45.6617 20.5052 44.5099 19.0813 44.5099C18.1084 44.5099 17.2628 45.0474 16.8237 45.8409C10.1253 43.8801 7.90551 38.7588 7.25066 36.5795H10.4531V22.8621H6.67359C7.63738 11.5915 17.0548 2.71467 28.5 2.71467C39.9452 2.71467 49.3626 11.5915 50.3264 22.8621H46.5469V36.5795H52.3988C54.3878 36.5795 56 35.044 56 33.1501V26.2914C56 24.3976 54.3878 22.8621 52.3988 22.8621ZM8.73438 24.5775V34.8656H4.60121C3.56309 34.8656 2.71875 34.0961 2.71875 33.1509V26.2922C2.71875 25.347 3.56309 24.5775 4.60121 24.5775H8.73438ZM52.3988 34.8656C53.4369 34.8656 54.2812 34.0961 54.2812 33.1509V26.2922C54.2812 25.347 53.4369 24.5775 52.3988 24.5775H48.2656V34.8656H52.3988Z" fill="#2C2C2E"/>
<path d="M52.0477 22.8621L51.649 22.8937L51.6782 23.2621H52.0477V22.8621ZM4.95227 22.8621V23.2621H5.3218L5.35101 22.8937L4.95227 22.8621ZM5.47734 36.5795L5.86321 36.4741L5.78274 36.1795H5.47734V36.5795ZM16.547 47.5418L16.9405 47.4704L16.8959 47.2244L16.6552 47.1567L16.547 47.5418ZM16.8237 45.8409L16.7113 46.2248L17.0186 46.3147L17.1736 46.0346L16.8237 45.8409ZM7.25066 36.5795V36.1795H6.71281L6.86758 36.6946L7.25066 36.5795ZM10.4531 36.5795V36.9795H10.8531V36.5795H10.4531ZM10.4531 22.8621H10.8531V22.4621H10.4531V22.8621ZM6.67359 22.8621L6.27505 22.828L6.23793 23.2621H6.67359V22.8621ZM50.3264 22.8621V23.2621H50.7621L50.7249 22.828L50.3264 22.8621ZM46.5469 22.8621V22.4621H46.1469V22.8621H46.5469ZM46.5469 36.5795H46.1469V36.9795H46.5469V36.5795ZM8.73438 34.8656V35.2656H9.13437V34.8656H8.73438ZM8.73438 24.5775H9.13437V24.1775H8.73438V24.5775ZM48.2656 24.5775V24.1775H47.8656V24.5775H48.2656ZM48.2656 34.8656H47.8656V35.2656H48.2656V34.8656ZM52.0477 23.2621H52.3988V22.4621H52.0477V23.2621ZM28.5 1.4C40.68 1.4 50.6962 10.8807 51.649 22.8937L52.4465 22.8305C51.4614 10.4094 41.1052 0.6 28.5 0.6V1.4ZM5.35101 22.8937C6.30378 10.8807 16.32 1.4 28.5 1.4V0.6C15.8948 0.6 5.53865 10.4094 4.55352 22.8305L5.35101 22.8937ZM4.60121 23.2621H4.95227V22.4621H4.60121V23.2621ZM1.4 26.2914C1.4 24.6367 2.81446 23.2621 4.60121 23.2621V22.4621C2.40991 22.4621 0.6 24.1585 0.6 26.2914H1.4ZM1.4 33.1501V26.2914H0.6V33.1501H1.4ZM4.60121 36.1795C2.81446 36.1795 1.4 34.8049 1.4 33.1501H0.6C0.6 35.2831 2.40991 36.9795 4.60121 36.9795V36.1795ZM5.47734 36.1795H4.60121V36.9795H5.47734V36.1795ZM16.6552 47.1567C8.80791 44.951 6.44354 38.5989 5.86321 36.4741L5.09148 36.6849C5.70139 38.918 8.19076 45.6085 16.4387 47.9269L16.6552 47.1567ZM19.0813 49.2539C18.0122 49.2539 17.1245 48.4843 16.9405 47.4704L16.1534 47.6132C16.4051 49.0008 17.6186 50.0539 19.0813 50.0539V49.2539ZM21.2594 47.0819C21.2594 48.2803 20.2852 49.2539 19.0813 49.2539V50.0539C20.7253 50.0539 22.0594 48.7238 22.0594 47.0819H21.2594ZM19.0813 44.9099C20.2852 44.9099 21.2594 45.8834 21.2594 47.0819H22.0594C22.0594 45.4399 20.7253 44.1099 19.0813 44.1099V44.9099ZM17.1736 46.0346C17.5452 45.3633 18.2597 44.9099 19.0813 44.9099V44.1099C17.9572 44.1099 16.9805 44.7315 16.4737 45.6472L17.1736 46.0346ZM6.86758 36.6946C7.54189 38.9387 9.8292 44.2103 16.7113 46.2248L16.936 45.457C10.4213 43.55 8.26913 38.579 7.63374 36.4644L6.86758 36.6946ZM10.4531 36.1795H7.25066V36.9795H10.4531V36.1795ZM10.0531 22.8621V36.5795H10.8531V22.8621H10.0531ZM6.67359 23.2621H10.4531V22.4621H6.67359V23.2621ZM28.5 2.31467C16.8429 2.31467 7.25617 11.3547 6.27505 22.828L7.07214 22.8962C8.01859 11.8283 17.2668 3.11467 28.5 3.11467V2.31467ZM50.7249 22.828C49.7438 11.3547 40.1571 2.31467 28.5 2.31467V3.11467C39.7332 3.11467 48.9814 11.8283 49.9279 22.8962L50.7249 22.828ZM46.5469 23.2621H50.3264V22.4621H46.5469V23.2621ZM46.9469 36.5795V22.8621H46.1469V36.5795H46.9469ZM52.3988 36.1795H46.5469V36.9795H52.3988V36.1795ZM55.6 33.1501C55.6 34.8049 54.1855 36.1795 52.3988 36.1795V36.9795C54.5901 36.9795 56.4 35.2831 56.4 33.1501H55.6ZM55.6 26.2914V33.1501H56.4V26.2914H55.6ZM52.3988 23.2621C54.1855 23.2621 55.6 24.6367 55.6 26.2914H56.4C56.4 24.1585 54.5901 22.4621 52.3988 22.4621V23.2621ZM9.13437 34.8656V24.5775H8.33437V34.8656H9.13437ZM4.60121 35.2656H8.73438V34.4656H4.60121V35.2656ZM2.31875 33.1509C2.31875 34.3513 3.37807 35.2656 4.60121 35.2656V34.4656C3.7481 34.4656 3.11875 33.8409 3.11875 33.1509H2.31875ZM2.31875 26.2922V33.1509H3.11875V26.2922H2.31875ZM4.60121 24.1775C3.37807 24.1775 2.31875 25.0918 2.31875 26.2922H3.11875C3.11875 25.6022 3.7481 24.9775 4.60121 24.9775V24.1775ZM8.73438 24.1775H4.60121V24.9775H8.73438V24.1775ZM53.8812 33.1509C53.8812 33.8409 53.2519 34.4656 52.3988 34.4656V35.2656C53.6219 35.2656 54.6813 34.3513 54.6813 33.1509H53.8812ZM53.8812 26.2922V33.1509H54.6813V26.2922H53.8812ZM52.3988 24.9775C53.2519 24.9775 53.8812 25.6022 53.8812 26.2922H54.6813C54.6813 25.0918 53.6219 24.1775 52.3988 24.1775V24.9775ZM48.2656 24.9775H52.3988V24.1775H48.2656V24.9775ZM48.6656 34.8656V24.5775H47.8656V34.8656H48.6656ZM52.3988 34.4656H48.2656V35.2656H52.3988V34.4656Z" fill="#2C2C2E"/>
<path fill-rule="evenodd" clip-rule="evenodd" d="M39.5646 43.6173L37.4521 39.3772L37.4406 39.3832C40.6245 36.7178 42.6518 32.7075 42.6518 28.2212C42.6518 20.1968 36.1695 13.6913 28.1738 13.6913C20.1781 13.6913 13.6958 20.1968 13.6958 28.2212C13.6958 36.2456 20.1781 42.7511 28.1738 42.7511C29.2503 42.7511 30.2983 42.6297 31.3075 42.4058L33.348 46.5011L32.4321 46.9263L36.6682 55.999H38.4366L34.5616 47.7058L39.7298 45.3088L44.7162 55.999H46.4843L40.5116 43.1785L39.5646 43.6173ZM28.1697 41.0426C21.1257 41.0426 15.395 35.2913 15.395 28.2221C15.395 21.1529 21.1257 15.4016 28.1697 15.4016C35.2137 15.4016 40.9444 21.1529 40.9444 28.2221C40.9444 35.2913 35.2137 41.0426 28.1697 41.0426ZM32.9666 41.9297L34.8867 45.7839L38.0093 44.3357L36.0505 40.4049C35.0945 41.0292 34.061 41.5438 32.9666 41.9297Z" fill="#2C2C2E"/>
<path d="M37.4521 39.3772L37.8101 39.1988L37.6286 38.8345L37.2675 39.0223L37.4521 39.3772ZM39.5646 43.6173L39.2066 43.7957L39.38 44.1438L39.7328 43.9803L39.5646 43.6173ZM37.4406 39.3832L37.1838 39.0764L37.6252 39.738L37.4406 39.3832ZM31.3075 42.4058L31.6655 42.2274L31.526 41.9476L31.2208 42.0153L31.3075 42.4058ZM33.348 46.5011L33.5164 46.8639L33.8894 46.6908L33.706 46.3227L33.348 46.5011ZM32.4321 46.9263L32.2636 46.5635L31.9 46.7323L32.0696 47.0955L32.4321 46.9263ZM36.6682 55.999L36.3057 56.1682L36.4135 56.399H36.6682V55.999ZM38.4366 55.999V56.399H39.065L38.799 55.8296L38.4366 55.999ZM34.5616 47.7058L34.3933 47.3429L34.0294 47.5117L34.1992 47.8751L34.5616 47.7058ZM39.7298 45.3088L40.0923 45.1397L39.9236 44.778L39.5615 44.9459L39.7298 45.3088ZM44.7162 55.999L44.3537 56.1681L44.4614 56.399H44.7162V55.999ZM46.4843 55.999V56.399H47.1119L46.8468 55.83L46.4843 55.999ZM40.5116 43.1785L40.8742 43.0095L40.7057 42.6477L40.3435 42.8155L40.5116 43.1785ZM34.8867 45.7839L34.5286 45.9623L34.7021 46.3105L35.055 46.1468L34.8867 45.7839ZM32.9666 41.9297L32.8336 41.5524L32.4068 41.7029L32.6086 42.108L32.9666 41.9297ZM38.0093 44.3357L38.1776 44.6985L38.5507 44.5254L38.3673 44.1573L38.0093 44.3357ZM36.0505 40.4049L36.4085 40.2265L36.208 39.8242L35.8317 40.07L36.0505 40.4049ZM37.0941 39.5555L39.2066 43.7957L39.9226 43.439L37.8101 39.1988L37.0941 39.5555ZM37.6252 39.738L37.6367 39.732L37.2675 39.0223L37.256 39.0283L37.6252 39.738ZM42.2518 28.2212C42.2518 32.5843 40.2807 36.4839 37.1838 39.0764L37.6974 39.6899C40.9683 36.9516 43.0518 32.8307 43.0518 28.2212H42.2518ZM28.1738 14.0913C35.9473 14.0913 42.2518 20.4164 42.2518 28.2212H43.0518C43.0518 19.9773 36.3918 13.2913 28.1738 13.2913V14.0913ZM14.0958 28.2212C14.0958 20.4164 20.4004 14.0913 28.1738 14.0913V13.2913C19.9559 13.2913 13.2958 19.9773 13.2958 28.2212H14.0958ZM28.1738 42.3511C20.4004 42.3511 14.0958 36.026 14.0958 28.2212H13.2958C13.2958 36.4651 19.9559 43.1511 28.1738 43.1511V42.3511ZM31.2208 42.0153C30.239 42.2332 29.2201 42.3511 28.1738 42.3511V43.1511C29.2805 43.1511 30.3575 43.0263 31.3941 42.7963L31.2208 42.0153ZM33.706 46.3227L31.6655 42.2274L30.9494 42.5842L32.99 46.6795L33.706 46.3227ZM32.6005 47.2891L33.5164 46.8639L33.1796 46.1383L32.2636 46.5635L32.6005 47.2891ZM37.0306 55.8297L32.7945 46.7571L32.0696 47.0955L36.3057 56.1682L37.0306 55.8297ZM38.4366 55.599H36.6682V56.399H38.4366V55.599ZM34.1992 47.8751L38.0742 56.1683L38.799 55.8296L34.924 47.5365L34.1992 47.8751ZM39.5615 44.9459L34.3933 47.3429L34.7299 48.0687L39.8981 45.6717L39.5615 44.9459ZM45.0787 55.8299L40.0923 45.1397L39.3673 45.4779L44.3537 56.1681L45.0787 55.8299ZM46.4843 55.599H44.7162V56.399H46.4843V55.599ZM40.1491 43.3474L46.1217 56.1679L46.8468 55.83L40.8742 43.0095L40.1491 43.3474ZM39.7328 43.9803L40.6798 43.5414L40.3435 42.8155L39.3964 43.2544L39.7328 43.9803ZM14.995 28.2221C14.995 35.5109 20.9035 41.4426 28.1697 41.4426V40.6426C21.348 40.6426 15.795 35.0718 15.795 28.2221H14.995ZM28.1697 15.0016C20.9035 15.0016 14.995 20.9333 14.995 28.2221H15.795C15.795 21.3724 21.348 15.8016 28.1697 15.8016V15.0016ZM41.3444 28.2221C41.3444 20.9333 35.436 15.0016 28.1697 15.0016V15.8016C34.9914 15.8016 40.5444 21.3724 40.5444 28.2221H41.3444ZM28.1697 41.4426C35.436 41.4426 41.3444 35.5109 41.3444 28.2221H40.5444C40.5444 35.0718 34.9914 40.6426 28.1697 40.6426V41.4426ZM35.2447 45.6056L33.3247 41.7513L32.6086 42.108L34.5286 45.9623L35.2447 45.6056ZM37.8409 43.9728L34.7184 45.4211L35.055 46.1468L38.1776 44.6985L37.8409 43.9728ZM35.6924 40.5833L37.6512 44.5141L38.3673 44.1573L36.4085 40.2265L35.6924 40.5833ZM33.0997 42.3069C34.2247 41.9102 35.2869 41.3813 36.2692 40.7398L35.8317 40.07C34.902 40.6772 33.8973 41.1774 32.8336 41.5524L33.0997 42.3069Z" fill="#2C2C2E"/>
</svg>
