<svg width="30" height="30" viewBox="0 0 30 30" fill="none" xmlns="http://www.w3.org/2000/svg">
<g id="ic_popup_done">
<path id="Shape" fill-rule="evenodd" clip-rule="evenodd" d="M30 15C30 6.71573 23.2843 0 15 0C11.0218 0 7.20644 1.58035 4.3934 4.3934C1.58035 7.20644 0 11.0218 0 15C0 23.2843 6.71573 30 15 30C23.2843 30 30 23.2843 30 15ZM28.125 15C28.125 22.2487 22.2487 28.125 15 28.125C7.75412 28.1181 1.88189 22.2459 1.875 15C1.875 7.75126 7.75126 1.875 15 1.875C22.2487 1.875 28.125 7.75126 28.125 15Z" fill="#00AE3B"/>
<path id="Path" d="M20.3214 10.6666L12.7085 18.2806L9.67758 15.2497C9.45421 15.0263 9.09109 15.0263 8.86772 15.2497C8.64435 15.473 8.64435 15.8361 8.86772 16.0595L12.3042 19.4959C12.4153 19.6071 12.5619 19.6632 12.7085 19.6632C12.8551 19.6632 13.0018 19.6071 13.114 19.4959L21.1324 11.4776C21.3557 11.2542 21.3557 10.8911 21.1324 10.6677C20.909 10.4444 20.5459 10.4432 20.3214 10.6666Z" fill="#00AE3B" stroke="#00AE3B" stroke-width="1.4"/>
</g>
</svg>
