<svg width="53" height="53" viewBox="0 0 53 53" fill="none" xmlns="http://www.w3.org/2000/svg">
<path fill-rule="evenodd" clip-rule="evenodd" d="M26.5012 27.5804C20.723 27.5804 16.0219 22.8803 16.0219 17.1027C16.0219 11.325 20.723 6.625 26.5012 6.625C32.2794 6.625 36.9794 11.325 36.9794 17.1027C36.9794 22.8803 32.2794 27.5804 26.5012 27.5804ZM26.5037 8.79272C21.9207 8.79272 18.1924 12.5205 18.1924 17.1025C18.1924 21.6845 21.9207 25.4122 26.5037 25.4122C31.0857 25.4122 34.814 21.6845 34.814 17.1025C34.814 12.5205 31.0857 8.79272 26.5037 8.79272ZM38.1724 45.0097C38.3238 45.5888 37.9766 46.1815 37.3976 46.3329C37.3055 46.3562 37.2134 46.3679 37.1223 46.3679C36.6418 46.3679 36.2024 46.045 36.0744 45.5581L34.8464 40.8623C34.6951 40.2832 35.0423 39.6904 35.6213 39.539C36.2003 39.394 36.7921 39.7349 36.9445 40.3139L38.1724 45.0097ZM16.9281 45.5596L18.1555 40.8628C18.3068 40.2837 17.9602 39.6909 17.3811 39.5396C16.7968 39.3903 16.2093 39.7364 16.0585 40.3144L14.831 45.0113C14.6797 45.5903 15.0264 46.1831 15.6054 46.3345C15.6975 46.3578 15.7896 46.3694 15.8801 46.3694C16.3617 46.3694 16.801 46.0466 16.9281 45.5596ZM46.319 44.9421C46.5085 45.5105 46.2015 46.1245 45.6341 46.3129C45.5198 46.351 45.4044 46.369 45.2911 46.369C44.837 46.369 44.4146 46.0821 44.2633 45.628L40.3095 33.7668C40.0491 32.9887 39.0657 32.2795 38.2453 32.2795H14.7557C13.9354 32.2795 12.9514 32.9887 12.6921 33.7668L8.73779 45.628C8.54831 46.1954 7.9354 46.5045 7.36642 46.3129C6.7985 46.1245 6.49152 45.5105 6.681 44.9421L10.6353 33.0808C11.1905 31.4157 13.0001 30.1115 14.7557 30.1115H38.2453C40.0004 30.1115 41.8106 31.4157 42.3653 33.0808L46.319 44.9421Z" fill="#2C2C2E"/>
<path d="M37.3976 46.3329L37.4589 46.5753L37.4608 46.5748L37.3976 46.3329ZM38.1724 45.0097L38.4143 44.9465L38.4143 44.9465L38.1724 45.0097ZM36.0744 45.5581L35.8325 45.6213L35.8326 45.6217L36.0744 45.5581ZM34.8464 40.8623L34.6046 40.9255L34.6046 40.9255L34.8464 40.8623ZM35.6213 39.539L35.5606 39.2965L35.5581 39.2972L35.6213 39.539ZM36.9445 40.3139L37.1864 40.2507L37.1863 40.2503L36.9445 40.3139ZM18.1555 40.8628L17.9136 40.7995L17.9136 40.7996L18.1555 40.8628ZM16.9281 45.5596L16.6862 45.4964L16.6862 45.4965L16.9281 45.5596ZM17.3811 39.5396L17.4444 39.2977L17.443 39.2973L17.3811 39.5396ZM16.0585 40.3144L16.3003 40.3776L16.3004 40.3776L16.0585 40.3144ZM14.831 45.0113L15.0729 45.0745L15.0729 45.0745L14.831 45.0113ZM15.6054 46.3345L15.5422 46.5764L15.5441 46.5769L15.6054 46.3345ZM45.6341 46.3129L45.5553 46.0756L45.5551 46.0757L45.6341 46.3129ZM46.319 44.9421L46.0818 45.0211L46.319 44.9421ZM44.2633 45.628L44.0261 45.7071L44.2633 45.628ZM40.3095 33.7668L40.5467 33.6877L40.5466 33.6874L40.3095 33.7668ZM12.6921 33.7668L12.9292 33.8458L12.9292 33.8458L12.6921 33.7668ZM8.73779 45.628L8.97492 45.7072L8.97496 45.7071L8.73779 45.628ZM7.36642 46.3129L7.4462 46.076L7.44514 46.0756L7.36642 46.3129ZM6.681 44.9421L6.44383 44.863L6.44383 44.863L6.681 44.9421ZM10.6353 33.0808L10.3981 33.0017L10.3981 33.0018L10.6353 33.0808ZM42.3653 33.0808L42.1281 33.1598L42.1281 33.1599L42.3653 33.0808ZM15.7719 17.1027C15.7719 23.0184 20.585 27.8304 26.5012 27.8304V27.3304C20.861 27.3304 16.2719 22.7422 16.2719 17.1027H15.7719ZM26.5012 6.375C20.585 6.375 15.7719 11.1869 15.7719 17.1027H16.2719C16.2719 11.4631 20.861 6.875 26.5012 6.875V6.375ZM37.2294 17.1027C37.2294 11.187 32.4174 6.375 26.5012 6.375V6.875C32.1413 6.875 36.7294 11.4631 36.7294 17.1027H37.2294ZM26.5012 27.8304C32.4174 27.8304 37.2294 23.0184 37.2294 17.1027H36.7294C36.7294 22.7423 32.1413 27.3304 26.5012 27.3304V27.8304ZM18.4424 17.1025C18.4424 12.6586 22.0587 9.04272 26.5037 9.04272V8.54272C21.7826 8.54272 17.9424 12.3823 17.9424 17.1025H18.4424ZM26.5037 25.1622C22.0587 25.1622 18.4424 21.5463 18.4424 17.1025H17.9424C17.9424 21.8226 21.7826 25.6622 26.5037 25.6622V25.1622ZM34.564 17.1025C34.564 21.5464 30.9477 25.1622 26.5037 25.1622V25.6622C31.2238 25.6622 35.064 21.8225 35.064 17.1025H34.564ZM26.5037 9.04272C30.9477 9.04272 34.564 12.6585 34.564 17.1025H35.064C35.064 12.3824 31.2238 8.54272 26.5037 8.54272V9.04272ZM37.4608 46.5748C38.1734 46.3885 38.6006 45.6591 38.4143 44.9465L37.9306 45.0729C38.047 45.5184 37.7798 45.9746 37.3343 46.0911L37.4608 46.5748ZM37.1223 46.6179C37.2348 46.6179 37.3475 46.6035 37.4589 46.5753L37.3363 46.0906C37.2635 46.109 37.1919 46.1179 37.1223 46.1179V46.6179ZM35.8326 45.6217C35.9902 46.2208 36.5307 46.6179 37.1223 46.6179V46.1179C36.7528 46.1179 36.4147 45.8692 36.3161 45.4945L35.8326 45.6217ZM34.6046 40.9255L35.8325 45.6213L36.3162 45.4948L35.0883 40.799L34.6046 40.9255ZM35.5581 39.2972C34.8455 39.4835 34.4182 40.2128 34.6046 40.9255L35.0883 40.799C34.9719 40.3536 35.239 39.8974 35.6845 39.7809L35.5581 39.2972ZM37.1863 40.2503C36.9982 39.5359 36.2695 39.119 35.5606 39.2965L35.682 39.7816C36.1312 39.6691 36.5859 39.9338 36.7027 40.3776L37.1863 40.2503ZM38.4143 44.9465L37.1864 40.2507L36.7026 40.3772L37.9306 45.073L38.4143 44.9465ZM17.9136 40.7996L16.6862 45.4964L17.1699 45.6228L18.3974 40.926L17.9136 40.7996ZM17.3179 39.7814C17.7632 39.8978 18.0301 40.3539 17.9136 40.7995L18.3973 40.926C18.5836 40.2135 18.1571 39.484 17.4444 39.2977L17.3179 39.7814ZM16.3004 40.3776C16.4162 39.9336 16.8673 39.6663 17.3193 39.7818L17.443 39.2973C16.7263 39.1143 16.0024 39.5393 15.8166 40.2513L16.3004 40.3776ZM15.0729 45.0745L16.3003 40.3776L15.8166 40.2512L14.5892 44.9481L15.0729 45.0745ZM15.6686 46.0926C15.2233 45.9762 14.9564 45.5201 15.0729 45.0745L14.5892 44.9481C14.4029 45.6605 14.8294 46.39 15.5422 46.5764L15.6686 46.0926ZM15.8801 46.1194C15.8111 46.1194 15.7396 46.1105 15.6667 46.0921L15.5441 46.5769C15.6554 46.605 15.7681 46.6194 15.8801 46.6194V46.1194ZM16.6862 45.4965C16.5886 45.8706 16.2509 46.1194 15.8801 46.1194V46.6194C16.4726 46.6194 17.0135 46.2226 17.17 45.6227L16.6862 45.4965ZM45.7129 46.5502C46.4118 46.3181 46.7892 45.5622 46.5562 44.863L46.0818 45.0211C46.2277 45.4588 45.9912 45.9309 45.5553 46.0756L45.7129 46.5502ZM45.2911 46.619C45.4311 46.619 45.5732 46.5967 45.7132 46.5501L45.5551 46.0757C45.4664 46.1053 45.3777 46.119 45.2911 46.119V46.619ZM44.0261 45.7071C44.2125 46.2664 44.7327 46.619 45.2911 46.619V46.119C44.9413 46.119 44.6168 45.8979 44.5004 45.549L44.0261 45.7071ZM40.0723 33.8458L44.0261 45.7071L44.5004 45.549L40.5467 33.6877L40.0723 33.8458ZM38.2453 32.5295C38.5888 32.5295 38.9896 32.6808 39.3412 32.9342C39.6928 33.1876 39.9633 33.5202 40.0724 33.8461L40.5466 33.6874C40.3953 33.2353 40.0439 32.8243 39.6336 32.5286C39.2233 32.2328 38.7222 32.0295 38.2453 32.0295V32.5295ZM14.7557 32.5295H38.2453V32.0295H14.7557V32.5295ZM12.9292 33.8458C13.0378 33.5201 13.3081 33.1876 13.6597 32.9342C14.0113 32.6808 14.4122 32.5295 14.7557 32.5295V32.0295C14.2789 32.0295 13.7777 32.2328 13.3673 32.5286C12.957 32.8243 12.6057 33.2354 12.4549 33.6877L12.9292 33.8458ZM8.97496 45.7071L12.9292 33.8458L12.4549 33.6877L8.50062 45.5489L8.97496 45.7071ZM7.28664 46.5498C7.98784 46.7859 8.74201 46.4046 8.97492 45.7072L8.50067 45.5488C8.35461 45.9862 7.88296 46.223 7.4462 46.076L7.28664 46.5498ZM6.44383 44.863C6.21074 45.5622 6.58828 46.3181 7.2877 46.5502L7.44514 46.0756C7.00871 45.9308 6.77229 45.4588 6.91817 45.0211L6.44383 44.863ZM10.3981 33.0018L6.44383 44.863L6.91817 45.0211L10.8724 33.1599L10.3981 33.0018ZM14.7557 29.8615C12.8925 29.8615 10.9874 31.2345 10.3981 33.0017L10.8724 33.1599C11.3936 31.5969 13.1077 30.3615 14.7557 30.3615V29.8615ZM38.2453 29.8615H14.7557V30.3615H38.2453V29.8615ZM42.6024 33.0018C42.0137 31.2345 40.108 29.8615 38.2453 29.8615V30.3615C39.8929 30.3615 41.6074 31.5969 42.1281 33.1598L42.6024 33.0018ZM46.5562 44.863L42.6024 33.0018L42.1281 33.1599L46.0818 45.0211L46.5562 44.863Z" fill="#2C2C2E"/>
<rect x="1" y="1" width="51" height="51" rx="3" stroke="#2C2C2E" stroke-width="2"/>
</svg>
