<svg width="56" height="56" viewBox="0 0 56 56" fill="none" xmlns="http://www.w3.org/2000/svg">
<path d="M43.0349 23.3468C42.6266 23.4289 42.2677 23.67 42.0373 24.0169C41.8069 24.3638 41.7239 24.7881 41.8067 25.1962C43.1335 31.7167 39.7271 38.2785 33.6308 40.9454C27.5345 43.6124 20.4035 41.6604 16.5154 36.2603C12.6274 30.8603 13.0379 23.4785 17.5008 18.5429C21.9637 13.6073 29.2671 12.458 35.0301 15.7845C35.7797 16.2107 36.7328 15.952 37.1639 15.2052C37.5951 14.4585 37.3426 13.5038 36.5988 13.0677C29.5633 9.01625 20.654 10.4258 15.2128 16.4513C9.77168 22.4767 9.27507 31.483 14.0208 38.0701C18.7665 44.6573 27.4667 47.0378 34.905 43.7844C42.3434 40.5311 46.5013 32.5266 44.8859 24.5704C44.8028 24.1626 44.561 23.8046 44.2139 23.5751C43.8667 23.3457 43.4426 23.2635 43.0349 23.3468Z" fill="#2C2C2E"/>
<path d="M23.1527 24.9805C22.5289 24.3967 21.5374 24.4051 20.9241 24.9992C20.3109 25.5934 20.3023 26.5541 20.9048 27.1585L26.8665 32.9346C27.4873 33.5359 28.4936 33.5359 29.1144 32.9346L42.6276 19.842C43.2301 19.2377 43.2215 18.277 42.6082 17.6828C41.995 17.0887 41.0035 17.0803 40.3797 17.6641L27.9904 29.6676L23.1527 24.9805Z" fill="#2C2C2E"/>
<path fill-rule="evenodd" clip-rule="evenodd" d="M0 28C0 12.536 12.536 0 28 0C43.4565 0.0180011 55.982 12.5435 56 28C56 43.464 43.464 56 28 56C12.536 56 0 43.464 0 28ZM3.11335 27.9997C3.11335 41.7455 14.2565 52.8886 28.0022 52.8886C41.7412 52.8723 52.8749 41.7387 52.8911 27.9997C52.8911 14.254 41.748 3.11083 28.0022 3.11083C14.2565 3.11083 3.11335 14.254 3.11335 27.9997Z" fill="#2C2C2E"/>
</svg>
