<?xml version="1.0" encoding="utf-8"?>
<!-- Generator: Adobe Illustrator 26.0.2, SVG Export Plug-In . SVG Version: 6.00 Build 0)  -->
<svg version="1.1" id="레이어_1" xmlns="http://www.w3.org/2000/svg" xmlns:xlink="http://www.w3.org/1999/xlink" x="0px"
	 y="0px" viewBox="0 0 61 36" style="enable-background:new 0 0 61 36;" xml:space="preserve">
<style type="text/css">
	.st0{clip-path:url(#SVGID_00000165946283965645896810000004447461550972492176_);}
	.st1{fill:#0A0A0A;}
</style>
<g>
	<g>
		<defs>
			<rect id="SVGID_1_" width="60.7" height="35.3"/>
		</defs>
		<clipPath id="SVGID_00000031912284826203791830000014658234923435611800_">
			<use xlink:href="#SVGID_1_"  style="overflow:visible;"/>
		</clipPath>
		<g style="clip-path:url(#SVGID_00000031912284826203791830000014658234923435611800_);">
			<path class="st1" d="M0,10.8h7.9l4.6-3.3l5.6,3.3h7.6l-7.6-4.9h5.7V2.1h-8.3v-2H9.6v2H1.3v3.8h6L0,10.8z"/>
			<path class="st1" d="M1.3,19.9h16.5v0.7H1.3V28c0.9-0.3,2.8-0.5,2.8-0.5c6.3-0.6,8.7,0.1,8.7,0.1c5.3,1,9.4,0,9.4,0
				c1.3-0.3,2.1-0.6,2.1-0.6v-3.5L22.2,24c-3.1,0.8-7.9,0.1-7.9,0.1C10.6,23.7,7.5,24,7.5,24v-0.7h16.2v-6.9h-7.9v-1h9.3v-3.7H0v3.7
				h10v1H1.3V19.9z"/>
			<path class="st1" d="M58.7,11.2c0,0-1.2,0.1-2.2,0.6V1.2h-5.9v25.4c-5.5-9.5-5.5-14.1-5.5-14.1v-5h4.6V3h-4.6V0h-2.6H42h-3v3h-5
				v4.5h5v5c0,0,0.4,4.8-5.5,14.8h6c0,0,1.1-1.6,2.7-5.8c1.7,4.2,2.7,5.8,2.7,5.8h6h5.5V17c-0.1-0.1,0.9-0.9,2.3-0.9
				c0,0,1.5,0,2-0.9v-4.7C60.7,10.6,60.1,11.1,58.7,11.2z"/>
			<path class="st1" d="M29,31.4h-8v3.9h8V31.4z"/>
			<path class="st1" d="M33.9,31.4h-4v3.9h4V31.4z"/>
		</g>
	</g>
</g>
</svg>
