<svg width="61" height="36" viewBox="0 0 61 36" fill="none" xmlns="http://www.w3.org/2000/svg">
<g clip-path="url(#clip0_38_96)">
<path d="M0 10.7599H7.85968L12.4966 7.41466L18.072 10.7599H25.6435L18.072 5.88884H23.7646V2.13284H15.4906V0.136841H9.56204V2.13284H1.28623V5.88884H7.28862L0 10.7599Z" fill="white"/>
<path d="M1.28623 19.9058H17.7784V20.5615H1.28623V27.9961C2.23378 27.7115 4.10368 27.5439 4.10368 27.5439C10.4339 26.9296 12.8208 27.6052 12.8208 27.6052C18.1009 28.605 22.2388 27.6052 22.2388 27.6052C23.5412 27.3188 24.3519 27.0179 24.3519 27.0179V23.5267L22.2316 24.0527C19.1565 24.8184 14.3737 24.1428 14.3737 24.1428C10.6465 23.7915 7.56605 24.0888 7.56605 24.0888V23.4096H23.7646V16.5119H15.8419V15.5139H25.1733V11.8156H0V15.5121H10.0322V16.5101H1.28623V19.9058Z" fill="white"/>
<path d="M58.6569 11.1707C58.6569 11.1707 57.4949 11.2446 56.4555 11.812V1.19255H50.5324V26.5802C44.9929 17.0777 45.0668 12.4606 45.0668 12.4606V7.43454H49.6605V2.97418H45.0668V0H42.4925H41.9647H39.0302V2.97418H34.0762V7.43454H39.0302V12.4624C39.0302 12.4624 39.4697 17.3046 33.5142 27.281H39.4967C39.4967 27.281 40.5614 25.7084 42.2295 21.4912C43.8977 25.7102 44.9623 27.281 44.9623 27.281H50.9449H56.4573V17.0002C56.3492 16.9263 57.358 16.1301 58.7758 16.1301C58.7758 16.1301 60.253 16.1211 60.7411 15.2204V10.5546C60.7393 10.5546 60.0944 11.0536 58.6569 11.1707Z" fill="white"/>
<path d="M28.9871 31.3883H20.9473V35.3208H28.9871V31.3883Z" fill="white"/>
<path d="M33.9486 31.3883H29.9277V35.3208H33.9486V31.3883Z" fill="white"/>
</g>
<defs>
<clipPath id="clip0_38_96">
<rect width="60.7391" height="35.3208" fill="white"/>
</clipPath>
</defs>
</svg>
